P2
# Created by IrfanView
40 42
255
192 192 192 192 192 192 192 192 192 192 192 192 192 192 192 192 192 
192 192 192 192 192 192 192 192 192 192 197 197 197 191 192 192 
192 192 192 192 192 192 192 192 192 192 192 192 192 192 192 192 192 192 192 192 192 192 192 192 
192 192 192 192 192 192 192 192 197 191 191 191 197 197 197 192 
192 192 192 192 192 192 192 192 192 192 192 192 192 192 192 192 192 192 192 192 192 192 192 192 
192 192 192 192 192 192 192 192 191 197 191 197 191 191 191 197 
192 192 192 192 192 192 192 192 172 140 140 140 140 140 140 140 140 140 140 140 127 134 140 140 
140 140 140 140 140 140 140 168 197 191 191 197 191 197 191 153 
140 140 140 153 192 192 192 192 140 72 153 172 153 110 72 72 72 72 72 81 6 6 25 83 
72 72 72 72 72 72 72 191 191 197 197 191 197 191 151 40 
6 59 72 97 192 192 192 192 140 172 197 191 197 191 221 255 255 255 255 247 70 6 6 25 
214 255 255 255 255 255 230 197 191 191 191 197 191 111 6 6 
6 134 120 110 192 192 192 192 172 197 191 197 191 191 197 205 255 255 255 255 247 175 102 118 
70 175 255 255 255 255 205 197 191 197 197 191 102 15 6 46 
151 255 120 110 192 192 192 192 197 191 197 191 191 197 197 191 205 255 255 255 255 255 255 255 
247 70 205 255 255 237 191 191 197 191 191 94 85 197 255 255 
255 255 120 97 192 192 192 192 175 197 191 197 197 191 191 197 191 205 255 255 255 255 255 255 
255 230 46 247 255 221 191 197 191 197 127 85 197 230 255 255 
255 255 120 110 192 192 192 192 140 191 191 191 191 197 191 191 197 191 214 255 255 255 255 255 
255 255 177 134 255 197 191 191 197 175 46 191 197 255 255 255 
255 255 120 97 192 192 192 192 140 140 197 197 197 191 197 197 191 197 191 230 255 255 255 255 
255 255 255 46 221 191 197 197 191 85 134 191 247 255 255 255 
255 255 120 110 192 192 192 192 140 72 214 191 191 197 191 191 197 191 197 191 237 255 255 255 
255 255 255 177 127 197 191 197 177 31 197 221 255 255 255 255 
255 255 120 97 192 192 192 192 140 72 255 205 191 191 197 191 191 197 191 197 197 255 255 255 
255 255 255 247 46 197 191 191 134 127 197 255 255 255 255 255 
255 255 120 110 192 192 192 192 140 72 255 255 221 191 191 197 191 191 197 191 197 205 255 255 
255 255 247 221 79 175 197 191 102 141 205 247 255 255 255 255 
255 255 120 97 192 192 192 192 140 72 255 255 255 230 197 191 197 197 191 197 191 197 230 255 
247 175 127 127 127 94 6 102 118 127 127 134 221 255 255 255 
255 255 120 110 192 192 192 192 140 72 255 255 255 255 237 151 111 177 197 177 191 197 197 247 
158 127 118 111 158 197 6 151 237 79 118 118 134 247 255 255 
255 255 120 97 192 192 192 192 140 72 255 255 255 255 205 151 230 94 197 62 94 177 197 111 
127 151 36 6 175 118 6 46 247 70 6 141 141 158 255 255 
255 255 120 110 192 192 192 192 140 72 255 255 255 255 134 255 255 177 158 62 6 46 134 6 
175 255 221 191 102 6 6 6 23 163 191 255 205 23 230 255 
255 255 120 97 192 192 192 192 140 72 255 255 255 255 134 255 255 255 85 79 102 111 15 6 
6 6 6 6 6 6 6 6 6 6 6 6 6 6 163 255 
255 255 120 110 192 192 192 192 140 72 255 255 255 255 151 255 255 255 205 6 102 158 151 6 
6 6 6 6 6 6 6 6 6 6 6 6 6 6 151 255 
255 255 120 97 192 192 192 192 140 72 255 255 255 255 118 255 255 255 255 118 70 127 102 46 
6 6 6 6 6 6 6 6 6 6 6 6 6 134 175 255 
255 255 120 110 192 192 192 192 140 72 255 255 255 255 177 205 255 255 255 255 141 53 85 23 
191 85 6 6 6 6 6 6 6 6 6 85 205 85 205 255 
255 255 120 97 192 192 192 192 140 72 255 255 255 255 255 118 247 255 255 255 255 230 102 6 
85 255 230 163 134 85 85 85 134 163 230 255 163 23 247 255 
255 255 120 110 192 192 192 192 140 72 255 255 255 255 255 247 85 247 255 255 255 255 255 118 
6 102 247 255 255 255 255 255 255 255 255 163 6 163 255 255 
255 255 120 97 192 192 192 192 140 72 255 255 255 255 255 255 151 62 255 255 255 255 255 255 
70 6 46 175 255 255 255 255 255 205 85 6 102 255 255 255 
255 255 120 110 192 192 192 192 140 72 255 255 255 255 255 151 127 230 255 255 255 255 255 255 
214 23 6 6 46 118 151 134 70 6 6 6 46 255 255 255 
255 255 120 97 192 192 192 192 140 72 255 255 255 247 102 205 255 255 255 255 255 255 255 255 
255 191 15 102 6 6 6 6 6 102 191 23 6 205 255 255 
255 255 120 110 192 192 192 192 140 72 255 255 255 102 247 255 255 255 255 255 255 255 255 255 
255 255 177 118 191 134 205 205 255 255 255 191 6 118 255 255 
255 255 120 97 192 192 192 192 140 72 255 255 221 175 255 255 255 255 255 255 255 255 255 255 
255 255 255 230 221 134 255 255 255 255 205 85 6 102 255 255 
255 255 120 110 192 192 192 192 140 72 255 255 205 191 255 255 230 230 255 255 255 255 255 255 
255 255 255 255 205 151 255 255 230 118 6 23 175 255 255 255 
255 255 120 110 192 192 192 192 140 72 255 255 255 118 151 118 163 230 255 255 255 255 255 255 
255 255 255 255 205 6 46 118 6 6 151 247 255 255 255 255 
255 255 120 97 192 192 192 192 140 72 255 255 255 118 230 255 255 255 255 255 255 255 255 255 
255 255 255 255 247 85 118 6 85 230 255 255 255 255 255 255 
255 255 120 110 192 192 192 192 140 72 255 255 255 151 255 255 255 247 177 255 255 255 255 255 
255 255 255 255 255 163 214 255 255 255 255 255 255 255 255 255 
255 255 120 97 192 192 192 192 140 72 255 255 255 102 177 134 134 151 221 255 255 255 255 255 
255 255 255 221 151 163 163 255 255 255 255 255 255 255 255 255 
255 255 120 110 192 192 192 192 140 72 255 255 255 230 134 247 255 255 255 255 255 255 255 255 
255 255 221 85 247 214 247 255 255 255 255 255 255 255 255 255 
255 255 120 110 192 192 192 192 140 72 255 255 255 205 177 255 255 255 255 255 255 255 255 255 
255 247 118 247 255 255 255 255 255 255 255 255 255 255 255 255 
255 255 120 97 192 192 192 192 140 72 255 221 221 102 70 151 163 134 134 247 255 255 255 255 
230 70 151 255 255 255 255 255 255 255 255 255 255 255 255 255 
255 255 120 110 192 192 192 192 140 72 109 6 6 15 154 112 230 255 255 255 255 255 230 151 
81 107 85 153 165 164 164 164 164 164 164 164 164 164 164 164 
164 164 97 110 192 192 192 192 140 81 85 85 72 72 72 85 163 255 255 205 151 91 81 83 
72 83 50 6 40 72 72 72 72 72 72 72 72 72 72 72 
72 72 72 97 192 192 192 192 192 192 192 192 192 192 192 192 134 102 94 134 175 192 192 192 
192 192 192 158 70 151 192 192 192 192 192 192 192 192 192 192 
192 192 192 192 192 192 192 192 192 192 192 192 192 192 192 192 192 192 192 192 192 192 192 192 
192 192 192 192 192 192 192 192 192 192 192 192 192 192 192 192 
192 192 192 192 192 192 192 192 192 192 192 192 192 192 192 192 192 192 192 192 192 192 192 192 
192 192 192 192 192 192 192 192 192 192 192 192 192 192 192 192 
192 192 192 192 192 192 192 